<svg width="1193" height="305" viewBox="0 0 1193 305" fill="none" xmlns="http://www.w3.org/2000/svg">
<path d="M263.92 177.84C249.92 192.5 236.04 207.01 222.09 221.61C227.77 230.95 229.12 240.61 225.29 250.77C219.8 265.35 204.35 273.66 189.01 270.34C173.86 267.05 163.16 253.25 164.42 237.8C164.77 233.43 163.57 231.44 159.71 229.71C152.32 226.4 145.15 222.58 137.97 218.82C135.88 217.72 134.75 217.77 133.07 219.77C124.56 229.87 113.58 233.57 100.85 230.39C88.38 227.27 80.34 218.92 77.8 206.36C75.38 194.42 78.65 183.69 88.25 175.68C97.62 167.86 108.29 166.14 119.84 170.26C120.55 170.51 121.24 170.78 122.4 171.21C126.65 164.63 130.99 157.97 135.24 151.25C135.54 150.77 135.48 149.76 135.17 149.24C130.64 141.5 126.05 133.8 121.52 126.19C99.61 130.64 85.16 124.34 78.99 107.85C73.52 93.2401 79.59 76.7701 93.27 69.09C108.42 60.58 123.73 65.0701 137.18 82.1801C146.17 78.9001 155.27 75.59 164.58 72.2001C162.53 54.5401 168.81 41.4401 185.88 35.0801C197.86 30.6201 211.66 34.8401 219.83 44.5501C229.4 55.9301 229.8 68.1601 221.27 84.2101C235.43 98.3901 249.53 112.51 263.88 126.88C271.29 121.44 279.95 119.34 289.34 121.25C296.8 122.77 302.96 126.64 307.71 132.68C317.11 144.62 316.72 161.59 306.75 173.08C298.61 182.45 282.01 189.47 263.91 177.85L263.92 177.84ZM258.26 172.29C254.14 166.67 251.67 160.8 251.24 154.1C251.18 153.24 249.77 151.92 248.81 151.75C243.91 150.85 238.95 150.24 234 149.57C231.45 149.23 228.89 148.97 226.42 148.69C222.17 161.01 214.27 168.69 201.82 171.49C200.99 171.68 199.86 173.08 199.85 173.93C199.72 185.16 199.76 196.4 199.76 206.94C205.81 209.71 211.39 212.28 217.4 215.03C230.62 201.2 244.32 186.87 258.25 172.3L258.26 172.29ZM108.81 120.5C122.02 120.4 132.37 109.83 132.3 96.5201C132.23 83.4001 121.42 72.8101 108.3 73.0001C95.18 73.1901 84.85 83.9101 84.96 97.2201C85.07 110.12 95.81 120.6 108.81 120.5ZM132.3 199.76C132.28 186.52 121.72 176.01 108.5 176.08C95.33 176.15 84.91 186.76 84.96 200.05C85.01 212.95 95.69 223.6 108.61 223.63C121.7 223.66 132.32 212.96 132.3 199.76ZM195.59 88.7901C208.83 88.8401 219.46 78.34 219.49 65.1701C219.52 51.9801 208.98 41.4101 195.76 41.3701C182.78 41.3401 172.14 51.8401 172.03 64.8001C171.92 77.9801 182.48 88.7301 195.59 88.7801V88.7901ZM172.03 140.26C172.01 153.41 182.67 164.13 195.77 164.12C208.91 164.11 219.55 153.41 219.49 140.27C219.44 127.27 208.93 116.7 195.96 116.61C182.87 116.52 172.05 127.21 172.04 140.26H172.03ZM282.8 175.88C296.07 175.88 306.67 165.4 306.68 152.25C306.7 139.23 295.87 128.46 282.8 128.5C269.8 128.54 259.28 139.05 259.22 152.06C259.16 165.41 269.51 175.87 282.8 175.88ZM195.68 263.12C208.89 263.17 219.53 252.58 219.49 239.42C219.45 226.42 208.95 215.76 196.04 215.62C182.99 215.48 172.1 226.19 172.03 239.23C171.96 252.42 182.5 263.07 195.68 263.12ZM257.29 133.08C243.04 118.83 228.92 104.71 214.7 90.4901C204.68 97.6501 193.64 98.6201 181.99 93.7301C176.16 102.76 170.52 111.49 164.76 120.41C166.62 121.32 167.94 121.96 169.36 122.65C178.59 110.86 190.42 105.87 204.78 110.14C219.48 114.52 226.57 125.48 227.68 140.71C235.88 141.83 244 142.94 251.92 144.02C253.83 140.13 255.58 136.57 257.29 133.09V133.08ZM160.4 127.11C155.55 134.62 150.81 141.79 146.31 149.12C145.76 150.02 146.16 151.97 146.78 153.06C150.48 159.57 154.37 165.97 158.2 172.41C165.84 185.27 173.48 198.13 181.14 211.02C183.72 210.19 186.02 209.19 188.43 208.76C190.99 208.3 191.88 207.26 191.83 204.57C191.66 194.83 191.69 185.08 191.81 175.33C191.84 172.77 191.14 171.79 188.49 171.1C176.11 167.87 167.74 160.06 165.16 147.44C164 141.79 164.96 135.71 164.96 129.39C163.98 128.9 162.43 128.14 160.39 127.12L160.4 127.11ZM140.44 157.98C136.45 164.14 132.82 169.74 129.27 175.21C129.41 175.56 129.42 175.71 129.5 175.79C130.26 176.61 131.04 177.42 131.79 178.25C138.08 185.16 140.87 193.3 140.21 202.6C140.02 205.27 138.45 208.61 139.54 210.4C140.82 212.49 144.31 213.24 146.86 214.52C153.73 217.95 160.61 221.36 167.29 224.68C169.51 221.93 171.57 219.6 173.34 217.06C173.86 216.31 173.99 214.71 173.54 213.94C162.7 195.47 151.75 177.06 140.43 157.98H140.44ZM140.63 89.3701C140.04 95.2701 139.49 100.4 139.08 105.54C139.02 106.34 139.41 107.64 139.99 107.95C145.78 110.97 151.66 113.84 157.62 116.8C163.66 107.45 169.45 98.4901 175.13 89.7001C172.37 86.2201 169.85 83.0401 167.2 79.6901C158.17 82.9801 149.07 86.3001 140.63 89.3701ZM128.04 121.6C132.42 128.96 136.47 135.76 140.73 142.91C145.08 136.18 149.11 129.94 153.25 123.52C149.07 121.41 145.19 119.43 141.3 117.48C137.427 115.533 134.007 116.047 131.04 119.02C130.17 119.89 129.17 120.64 128.05 121.6H128.04Z" fill="black"/>
<path d="M920.48 121.46C917.32 121.46 914.6 121.46 911.88 121.46C907.63 121.46 903.39 121.57 899.15 121.43C892.02 121.19 888.6 115.41 891.88 108.95C892.52 107.69 894.11 106.58 895.5 106.12C897.22 105.54 899.19 105.57 901.05 105.57C913.79 105.53 926.52 105.54 939.26 105.55C949.18 105.56 951.7 107.34 954.99 116.54C967.92 152.7 980.85 188.85 993.78 225.01C995.107 228.717 997.753 230.593 1001.72 230.64C1008.31 230.71 1010.48 232.68 1010.48 238.55C1010.48 244.24 1008.65 246.28 1002.87 246.33C989.01 246.43 975.15 246.36 961.29 246.36C961.04 246.36 960.79 246.33 960.54 246.32C955.45 245.96 953.73 243.97 953.76 238.49C953.78 233.19 955.7 230.89 960.7 230.72C966.04 230.54 971.39 230.68 977.31 230.68C974.72 223.1 972.33 216.05 969.89 209.02C968.263 204.32 964.95 201.973 959.95 201.98C944.34 201.98 928.73 202.05 913.13 201.91C910.39 201.89 909.23 202.81 908.4 205.36C905.7 213.63 902.73 221.81 899.64 230.65C904.49 230.65 908.81 230.77 913.11 230.62C921.28 230.34 922.69 235.43 920.68 242.89C920.29 244.33 917.53 246.06 915.83 246.09C901.48 246.34 887.12 246.34 872.77 246.15C868.94 246.1 867.55 243.96 867.35 239.49C867.11 234.17 868.4 231.8 872.07 230.96C873.03 230.74 874.05 230.69 875.04 230.66C879.253 230.513 882.107 228.387 883.6 224.28C895.43 191.57 907.26 158.86 919.07 126.15C919.56 124.79 919.91 123.37 920.47 121.49L920.48 121.46ZM961.74 186.15C961.63 185.31 961.64 184.93 961.52 184.59C954.59 164.29 947.67 143.99 940.66 123.72C940.36 122.85 939.29 122.25 938.58 121.53C937.86 122.41 936.81 123.19 936.46 124.2C929.62 143.86 922.85 163.56 916.08 183.25C915.78 184.12 915.68 185.05 915.45 186.15H961.73H961.74Z" fill="#BF2020"/>
<path d="M393.18 170.46C393.18 172.39 393.18 173.74 393.18 175.09C393.18 196.83 393.26 218.57 393.1 240.31C393.07 243.93 394.1 245.2 397.7 244.86C400.79 244.57 403.94 244.87 407.06 244.78C409.69 244.7 411.15 245.98 411.25 248.47C411.36 251.08 409.69 252.25 407.2 252.34C406.2 252.38 405.2 252.38 404.2 252.38C382.1 252.38 360 252.38 337.9 252.38C336.78 252.38 335.65 252.38 334.53 252.28C332.2 252.09 330.79 250.9 330.89 248.44C330.99 246.05 332.34 244.82 334.74 244.81C338.24 244.8 341.74 244.63 345.22 244.85C348.12 245.04 349.08 243.88 348.74 241.17C348.65 240.43 348.73 239.67 348.73 238.92C348.73 180.7 348.73 122.48 348.73 64.26C348.73 57.95 349.21 58.78 343.04 58.71C341.04 58.69 339.04 58.71 337.05 58.69C334.69 58.66 332.83 57.44 333.33 55.13C333.66 53.62 335.57 52.43 336.88 51.2C337.15 50.94 337.85 51.12 338.34 51.12C367.18 51.15 396.02 50.92 424.86 51.3C453.72 51.68 474.92 72.03 477.61 100.85C478.8 113.6 478.08 126.04 473.19 138C465.6 156.55 451.52 167.05 431.94 169.48C421.72 170.75 411.28 170.2 400.93 170.44C398.57 170.5 396.21 170.44 393.18 170.44V170.46ZM357.27 58.92V244.46H384.66V58.92H357.27ZM393.17 59.44C393.17 60.94 393.17 62.54 393.17 64.14C393.17 94.01 393.17 123.89 393.17 153.76C393.17 155.76 393.26 157.76 393.15 159.76C393.04 161.94 393.77 162.95 396.13 162.9C407.11 162.66 418.1 162.51 429.08 162.38C432.33 162.34 433.49 161.05 433.47 157.6C433.33 126.48 433.39 95.35 433.39 64.23C433.39 63.61 433.62 62.82 433.33 62.39C432.62 61.32 431.68 59.59 430.8 59.57C418.47 59.39 406.14 59.44 393.16 59.44H393.17ZM441.82 62.69V158.87C450.06 155.62 456.33 150.6 461.01 143.58C467.46 133.9 469.77 123.01 469.85 111.58C469.93 99.78 467.89 88.48 461.29 78.38C456.59 71.18 450.3 65.98 441.82 62.69Z" fill="#BF2020"/>
<path d="M1093.84 121.46V230.62C1095.16 230.62 1096.47 230.62 1097.79 230.62C1107.15 230.62 1116.52 230.55 1125.88 230.65C1132.81 230.72 1136.56 237.77 1132.72 243.63C1131.94 244.82 1130.22 245.65 1128.77 246.06C1127.13 246.52 1125.3 246.37 1123.56 246.37C1097.72 246.38 1071.87 246.37 1046.03 246.37C1045.28 246.37 1044.53 246.37 1043.78 246.36C1036.75 246.15 1032.95 239.39 1037.02 233.6C1038.23 231.88 1041.43 230.84 1043.76 230.76C1052.99 230.44 1062.23 230.63 1071.47 230.63C1072.82 230.63 1074.16 230.63 1075.75 230.63V121.67C1074.5 121.6 1073.19 121.48 1071.89 121.47C1063.65 121.45 1055.41 121.53 1047.17 121.44C1038.94 121.35 1037.35 118.77 1038.69 110.07C1038.93 108.52 1041.24 106.9 1042.96 106.1C1044.55 105.36 1046.63 105.57 1048.49 105.56C1072.71 105.53 1096.93 105.54 1121.15 105.54C1122.02 105.54 1122.9 105.51 1123.77 105.57C1130.54 106 1134.11 112.72 1130.34 118.46C1129.42 119.86 1127.12 120.98 1125.38 121.11C1119.92 121.52 1114.41 121.41 1108.93 121.46C1103.97 121.5 1099.02 121.46 1093.84 121.46Z" fill="#BF2020"/>
<path d="M657.85 116.65H671.65V169.1C673.1 167.86 673.83 167.43 674.3 166.81C684.4 153.41 698.15 150.18 713.69 153.36C728.72 156.43 736.81 166.99 740.37 181.17C743.93 195.35 744.06 209.69 739.28 223.66C729.54 252.14 694.33 259.01 674.4 236.46C673.87 235.86 673.19 235.38 671.73 234.11V247.51H657.86V116.65H657.85ZM728.74 201.48C727.93 195.54 727.6 190.15 726.4 184.96C723.62 172.88 715.75 166.19 703.44 164.77C691.5 163.4 680.26 168.75 675.76 179.09C669.5 193.48 669.49 208.33 675.76 222.72C680.21 232.92 691.05 238.15 703.09 237.07C714.99 236 722.64 230.09 725.79 218.63C727.36 212.91 727.84 206.9 728.74 201.49V201.48Z" fill="black"/>
<path d="M543 200.38C544.67 192.75 545.55 184.83 548.18 177.55C553.73 162.17 565.6 154.15 581.61 152.69C587.49 152.15 593.66 152.52 599.45 153.72C612.76 156.48 622.08 164.63 626.83 177.36C632.58 192.77 632.66 208.51 627.02 223.94C621.41 239.29 609.74 247.52 593.72 249.05C587.61 249.63 581.13 249.32 575.16 247.95C557.68 243.94 548.63 231.71 545.29 214.76C544.38 210.13 544.23 205.34 543.73 200.63C543.49 200.55 543.24 200.46 543 200.38ZM616.83 200.27C616.01 195.21 615.58 189.3 614.03 183.71C610.58 171.22 601.33 164.75 587.8 164.62C574.12 164.49 564.63 170.97 560.88 183.39C557.68 194.01 557.7 204.82 560.09 215.59C562.97 228.53 570.69 235.39 583.72 236.99C599.85 238.97 611.57 230.73 614.9 214.81C615.84 210.32 616.13 205.69 616.82 200.27H616.83Z" fill="black"/>
<path d="M477.97 154.11H491.03V168.93C491.47 169.14 491.91 169.35 492.34 169.56C496.5 159.85 503.53 154.13 513.91 153.36C519.91 152.92 525.89 153.07 531.54 156.66C530.52 160.13 529.68 163.63 528.35 166.94C528.05 167.68 525.99 168.17 524.84 168.02C521.53 167.58 518.29 166.29 514.99 166.17C505.56 165.84 497.77 170.54 495.11 179.58C492.93 187.01 491.96 194.97 491.65 202.75C491.11 216.23 491.5 229.74 491.5 243.24C491.5 244.6 491.5 245.95 491.5 247.53H477.96V154.12L477.97 154.11Z" fill="black"/>
<path d="M846.83 238.85V251.23H762.48V238.85H846.83Z" fill="black"/>
</svg>
